<svg xmlns="http://www.w3.org/2000/svg" width="16" height="16"><style type="text/css">.icon-canvas-transparent{opacity:0;fill:#2d2d30;} .icon-vs-out{fill:#2d2d30;} .icon-vs-bg{fill:#c5c5c5;}</style><path class="icon-canvas-transparent" d="M16 16h-16v-16h16v16z" id="canvas"/><path class="icon-vs-out" d="M16 4.28l-11.673 11.72h-4.327v-4.406l11.477-11.594h.308l4.215 4.237v.043z" id="outline" style="display: none;"/><path class="icon-vs-bg" d="M6 5.914l2.06-2.06v-.708L5.915 1l-.707.707.043.043.25.25 1 1h-3a2.5 2.5 0 0 0 0 5H4V7h-.5a1.5 1.5 0 1 1 0-3h3L5.207 5.293 5.914 6 6 5.914zM11 2H8.328l-1-1H12l.71.29 3 3L16 5v9l-1 1H6l-1-1V6.5l1 .847V14h9V6h-4V2zm1 0v3h3l-3-3" id="iconBg"/></svg>