<svg xmlns="http://www.w3.org/2000/svg" width="16" height="16"><style type="text/css">.icon-canvas-transparent{opacity:0;fill:#2d2d30;} .icon-vs-out{fill:#2d2d30;} .icon-vs-bg{fill:#c5c5c5;}</style><path class="icon-canvas-transparent" d="M16 16h-16v-16h16v16z" id="canvas"/><path class="icon-vs-out" d="M16 4.28l-11.673 11.72h-4.327v-4.406l11.477-11.594h.308l4.215 4.237v.043z" id="outline" style="display: none;"/><path class="icon-vs-bg" d="M2 2h12l1 1v10l-1 1H2l-1-1V3l1-1zm0 11h12V3H2v10zm11-9H3v3h10V4zm-1 2H4V5h8v1zm-3 6h4V8H9v4zm1-3h2v2h-2V9zM7 8H3v1h4V8zm-4 3h4v1H3v-1z" id="iconBg"/></svg>