<?xml version="1.0" encoding="UTF-8" standalone="no"?>
<!DOCTYPE svg PUBLIC "-//W3C//DTD SVG 1.1//EN" "http://www.w3.org/Graphics/SVG/1.1/DTD/svg11.dtd">
<svg version="1.1" xmlns="http://www.w3.org/2000/svg" xmlns:xlink="http://www.w3.org/1999/xlink" preserveAspectRatio="xMidYMid meet" viewBox="0 0 640 640" width="640" height="640"><defs><path d="M640 0C640 0 640 0 640 0C640 384 640 597.33 640 640C640 640 640 640 640 640C256 640 42.67 640 0 640C0 640 0 640 0 640C0 256 0 42.67 0 0C0 0 0 0 0 0C384 0 597.33 0 640 0Z" id="dCSC4x3m"></path><path d="M299.26 520C299.26 520 299.26 520 299.26 520C299.26 544 299.26 557.33 299.26 560C299.26 560 299.26 560 299.26 560C155.26 560 75.26 560 59.26 560C59.26 560 59.26 560 59.26 560C59.26 536 59.26 522.67 59.26 520C59.26 520 59.26 520 59.26 520C203.26 520 283.26 520 299.26 520Z" id="b1OgoErvGz"></path><path d="M53.33 84.44L121.48 84.44L183.7 189.63L248.89 84.44L315.56 84.44L213.33 242.96L213.33 349.63L154.07 349.63L154.07 244.44L53.33 84.44Z" id="amJLmIzD9"></path><path d="M336.3 137.78L336.3 84.44L557.04 84.44L557.04 137.78L475.56 137.78L475.56 349.63L417.78 349.63L417.78 137.78L336.3 137.78Z" id="b2MsKkpTvH"></path></defs><g><g><g><use xlink:href="#dCSC4x3m" opacity="1" fill="#000000" fill-opacity="0.19"></use><g><use xlink:href="#dCSC4x3m" opacity="1" fill-opacity="0" stroke="#000000" stroke-width="1" stroke-opacity="0"></use></g></g><g><use xlink:href="#b1OgoErvGz" opacity="1" fill="#000000" fill-opacity="1"></use><g><use xlink:href="#b1OgoErvGz" opacity="1" fill-opacity="0" stroke="#000000" stroke-width="1" stroke-opacity="0"></use></g></g><g><use xlink:href="#amJLmIzD9" opacity="1" fill="#000000" fill-opacity="1"></use><g><use xlink:href="#amJLmIzD9" opacity="1" fill-opacity="0" stroke="#000000" stroke-width="1" stroke-opacity="0"></use></g></g><g><use xlink:href="#b2MsKkpTvH" opacity="1" fill="#000000" fill-opacity="1"></use><g><use xlink:href="#b2MsKkpTvH" opacity="1" fill-opacity="0" stroke="#000000" stroke-width="1" stroke-opacity="0"></use></g></g></g></g></svg>