<svg xmlns="http://www.w3.org/2000/svg" width="16" height="16"><style type="text/css">.icon-canvas-transparent{opacity:0;fill:#F6F6F6;} .icon-vs-out{fill:#F6F6F6;} .icon-vs-bg{fill:#424242;}</style><path class="icon-canvas-transparent" d="M16 16h-16v-16h16v16z" id="canvas"/><path class="icon-vs-out" d="M16 4.28l-11.673 11.72h-4.327v-4.406l11.477-11.594h.308l4.215 4.237v.043z" id="outline" style="display: none;"/><path class="icon-vs-bg" d="M509.656 498.344L360.465 349.152C394.828 312.053 416 262.557 416 208C416 93.125 322.875 0 208 0S0 93.125 0 208S93.125 416 208 416C262.555 416 312.055 394.828 349.152 360.465L498.344 509.656C499.906 511.219 501.938 512 504 512S508.094 511.219 509.656 509.656C512.781 506.531 512.781 501.469 509.656 498.344ZM208 400C102.133 400 16 313.869 16 208S102.133 16 208 16S400 102.131 400 208S313.867 400 208 400Z" id="iconBg"/></svg>